<svg id="spine" xmlns="http://www.w3.org/2000/svg" viewBox="0 0 64 64"><defs><style>.cls-1{fill:#f0f;}</style></defs><g id="Spine_Logo" data-name="Spine Logo"><g id="i"><path class="cls-1" d="M19.89,7.52c.17,5,3.64,7.79,10.56,8.87,5.86.92,11.15.45,12.87-4.57C46.69,2,38.7,4.46,31.79,3.37S19.63-.53,19.89,7.52Z"/><path class="cls-1" d="M22,28.09c.64,3.74,4.13,5.89,9.47,5.75s9.32-2.24,9.87-6.27c1-7.47-4.87-4.58-10.2-4.44S20.71,20.75,22,28.09Z"/><path class="cls-1" d="M28.92,45.22c1.06,2.8,4,4,7.89,3.13s6.64-2.13,6.42-5.32c-.4-5.89-4.28-4-8.2-3.2S26.85,39.74,28.92,45.22Z"/><path class="cls-1" d="M32.29,58.28c.3,2.35,2.34,3.74,5.53,3.72s5.62-1.29,6-3.81c.77-4.68-2.8-2.94-6-2.91S31.68,53.65,32.29,58.28Z"/></g></g></svg>