<?xml version="1.0" encoding="utf-8"?>
<!-- Generator: Adobe Illustrator 22.0.1, SVG Export Plug-In . SVG Version: 6.00 Build 0)  -->
<svg version="1.1" id="Layer_1" xmlns="http://www.w3.org/2000/svg" xmlns:xlink="http://www.w3.org/1999/xlink" x="0px" y="0px"
	 viewBox="0 0 640 512" style="enable-background:new 0 0 640 512;" xml:space="preserve">
<style type="text/css">
	.st0{fill:#FFFFFF;}
</style>
<path class="st0" d="M10.1,0H7.9C7.4,0,7,0.4,7,0.9v2.3C7,3.6,7.4,4,7.9,4h2.3C10.6,4,11,3.6,11,3.1V0.9C11,0.4,10.6,0,10.1,0z M6,2
	H3.3C3,0.9,2.4,0.4,1.7,0.4C0.8,0.4,0,1.2,0,2.1s0.8,1.7,1.7,1.7C2.4,3.9,3.3,3,3.3,3h2.6C4.4,3.9,3.3,5.3,3,7h1.3
	c0.3-1.1,1-2,1.9-2.7C6.1,4.1,6,3.9,6,3.6V2z M4.1,8H1.9C1.4,8,1,8.4,1,8.9v2.3C1,11.6,1.4,12,1.9,12h2.3C4.6,12,5,11.6,5,11.1V8.9
	C5,8.4,4.6,8,4.1,8z M15.4,0.4c-0.7,0-1.3,0.4-1.6,1.6H12v1.6c0,0.2-0.1,0.5-0.2,0.7C12.7,5,13.4,5.9,13.7,7H15
	c-0.4-1.7-1.4-3.1-2.9-4h1.7c0,0,0.9,0.9,1.6,0.9c0.9,0,1.7-0.8,1.7-1.7S16.4,0.4,15.4,0.4z M15.1,8h-2.3C12.4,8,12,8.4,12,8.9v2.3
	c0,0.5,0.4,0.9,0.9,0.9h2.3c0.5,0,0.9-0.4,0.9-0.9V8.9C16,8.4,15.6,8,15.1,8z"/>
</svg>
