<?xml version="1.0" encoding="utf-8"?>
<!-- Generator: Adobe Illustrator 22.0.1, SVG Export Plug-In . SVG Version: 6.00 Build 0)  -->
<svg version="1.1" id="Layer_1" xmlns="http://www.w3.org/2000/svg" xmlns:xlink="http://www.w3.org/1999/xlink" x="0px" y="0px"
	 viewBox="0 0 16 16" style="enable-background:new 0 0 16 16;" xml:space="preserve">
<style type="text/css">
	.st0{fill:#FFFFFF;}
</style>
<path class="st0" d="M0,13.6V2.4C0,2.2,0.2,2,0.4,2h1.3C1.8,2,2,2.2,2,2.4v4.7l5.4-4.9C8,1.7,9,2.1,9,3v4.1l5.4-4.9
	C15,1.7,16,2.1,16,3v10c0,0.9-1,1.3-1.6,0.8L9,8.9V13c0,0.9-1,1.3-1.6,0.8L2,8.9v4.7C2,13.8,1.8,14,1.6,14H0.4C0.2,14,0,13.8,0,13.6
	z"/>
</svg>
