<?xml version="1.0" encoding="utf-8"?>
<!-- Generator: Adobe Illustrator 22.0.1, SVG Export Plug-In . SVG Version: 6.00 Build 0)  -->
<svg version="1.1" id="Layer_1" xmlns="http://www.w3.org/2000/svg" xmlns:xlink="http://www.w3.org/1999/xlink" x="0px" y="0px"
	 viewBox="0 0 16 16" style="enable-background:new 0 0 16 16;" xml:space="preserve">
<style type="text/css">
	.st0{fill:#FFFFFF;}
</style>
<path class="st0" d="M5.9,14H3.3C2.6,14,2,13.4,2,12.7V3.3C2,2.6,2.6,2,3.3,2h2.6c0.7,0,1.3,0.6,1.3,1.3v9.4C7.1,13.4,6.6,14,5.9,14
	z M14,12.7V3.3C14,2.6,13.4,2,12.7,2h-2.6C9.4,2,8.9,2.6,8.9,3.3v9.4c0,0.7,0.6,1.3,1.3,1.3h2.6C13.4,14,14,13.4,14,12.7z"/>
</svg>
