<svg id="audio" xmlns="http://www.w3.org/2000/svg" viewBox="0 0 64 64"><defs><style>.cls-1{fill:#f0f;}</style></defs><path class="cls-1" d="M28.13,14.4V50a2.55,2.55,0,0,1-4.35,1.8l-9.42-9.43H3.58A2.58,2.58,0,0,1,1,39.79V24.61A2.59,2.59,0,0,1,3.58,22H14.36l9.42-9.42A2.55,2.55,0,0,1,28.13,14.4ZM48.15,6a3.44,3.44,0,0,0-3.59,5.88,24.11,24.11,0,0,1,1.16,40.41,3.45,3.45,0,0,0,3.93,5.66A31,31,0,0,0,48.15,6Zm4.52,26.46a20.66,20.66,0,0,0-9.9-17.64,3.45,3.45,0,1,0-3.6,5.88,13.78,13.78,0,0,1,.67,23.1,3.45,3.45,0,0,0,3.93,5.66A20.71,20.71,0,0,0,52.67,32.43Zm-10.34,0a10.27,10.27,0,0,0-4.95-8.82,3.44,3.44,0,0,0-3.59,5.88,3.4,3.4,0,0,1,1.65,2.94A3.45,3.45,0,0,1,34,35.27a3.44,3.44,0,1,0,3.92,5.66A10.33,10.33,0,0,0,42.33,32.43Z"/></svg>