<svg id="code" xmlns="http://www.w3.org/2000/svg" viewBox="0 0 64 64"><defs><style>.cls-1{fill:#f0f;}</style></defs><path class="cls-1" d="M9.09,35.75v-7.5a9.18,9.18,0,0,0,3.44-.69,4.92,4.92,0,0,0,2-1.89,8.65,8.65,0,0,0,1.16-3.33,37.76,37.76,0,0,0,.25-5.22,43.11,43.11,0,0,1,.56-8.45,7.81,7.81,0,0,1,2-3.84,10.12,10.12,0,0,1,4.28-2.3,23.36,23.36,0,0,1,6-.56h1.66V9.44A15.32,15.32,0,0,0,26,9.83,2.82,2.82,0,0,0,24.56,11a5.77,5.77,0,0,0-.47,2.73q0,2-.28,7.47a18.54,18.54,0,0,1-.81,5,10.46,10.46,0,0,1-1.67,3.18A13.54,13.54,0,0,1,18.22,32a11,11,0,0,1,3,2.48A9.88,9.88,0,0,1,23,37.94a23,23,0,0,1,.81,5.44q.22,5.17.22,6.62a6,6,0,0,0,.5,2.88,3.14,3.14,0,0,0,1.52,1.23,14.15,14.15,0,0,0,4.39.42V62H28.81a23.82,23.82,0,0,1-6.47-.67,8.69,8.69,0,0,1-3.79-2.24,7.83,7.83,0,0,1-2.08-3.85A35,35,0,0,1,15.94,48a34.28,34.28,0,0,0-.5-7.47A6.6,6.6,0,0,0,13.36,37,7.69,7.69,0,0,0,9.09,35.75Z"/><path class="cls-1" d="M54.91,35.75a9.14,9.14,0,0,0-3.44.69,4.9,4.9,0,0,0-2,1.89,9.18,9.18,0,0,0-1.17,3.33,37.38,37.38,0,0,0-.25,5.18,44.65,44.65,0,0,1-.54,8.47,7.7,7.7,0,0,1-2,3.86,10.13,10.13,0,0,1-4.31,2.3,23.36,23.36,0,0,1-6,.56H33.53v-7.5a14.25,14.25,0,0,0,4.38-.42,3.06,3.06,0,0,0,1.51-1.22,5.61,5.61,0,0,0,.5-2.7q0-1.9.27-7.28A18.71,18.71,0,0,1,41,37.7a10.64,10.64,0,0,1,1.83-3.31A10.79,10.79,0,0,1,45.78,32a12.71,12.71,0,0,1-3.37-2.94,12.35,12.35,0,0,1-2-5.25,92,92,0,0,1-.5-9.62,8.54,8.54,0,0,0-.43-3.13,2.6,2.6,0,0,0-1.4-1.2,15,15,0,0,0-4.55-.42V2h1.66a24.8,24.8,0,0,1,6.47.65,8.51,8.51,0,0,1,3.78,2.24,8.19,8.19,0,0,1,2.08,3.87A34.88,34.88,0,0,1,48.06,16a36.7,36.7,0,0,0,.47,7.47A6.56,6.56,0,0,0,50.63,27a7.72,7.72,0,0,0,4.28,1.23Z"/></svg>