<svg id="effect" xmlns="http://www.w3.org/2000/svg" viewBox="0 0 64 64"><defs><style>.cls-1{fill:#f0f;}</style></defs><polygon class="cls-1" points="15.59 58.9 11.61 55.68 6.71 57.14 8.54 52.36 5.64 48.14 10.75 48.4 13.87 44.34 15.19 49.29 20.02 51 15.73 53.79 15.59 58.9"/><polygon class="cls-1" points="24.57 38.76 15.58 36.59 8.71 42.76 7.99 33.55 0 28.92 8.54 25.39 10.48 16.36 16.47 23.39 25.66 22.44 20.82 30.31 24.57 38.76"/><polygon class="cls-1" points="48.11 49.91 41.13 54.26 40.75 62.48 34.45 57.18 26.52 59.36 29.62 51.74 25.09 44.87 33.3 45.45 38.43 39.03 40.41 47.01 48.11 49.91"/><polygon class="cls-1" points="54.33 37.66 43.8 30.32 31.77 34.83 35.5 22.54 27.49 12.49 40.34 12.25 47.41 1.52 51.62 13.66 64 17.08 53.76 24.83 54.33 37.66"/></svg>