<svg xmlns="http://www.w3.org/2000/svg" viewBox="0 0 124 124"><defs><style>.cls-1{fill:#0277bd;stroke:#0277bd;stroke-miterlimit:10;stroke-width:4px;}.cls-2{opacity:0.75;}</style></defs><g id="folder"><path class="cls-1" d="M110.75,32h-45l-15-15H13.25A11.25,11.25,0,0,0,2,28.25v67.5A11.25,11.25,0,0,0,13.25,107h97.5A11.25,11.25,0,0,0,122,95.75V43.25A11.25,11.25,0,0,0,110.75,32Z"/></g><g id="folder_transparent"><path class="cls-2" d="M110.75,32h-45l-15-15H13.25A11.25,11.25,0,0,0,2,28.25v67.5A11.25,11.25,0,0,0,13.25,107h97.5A11.25,11.25,0,0,0,122,95.75V43.25A11.25,11.25,0,0,0,110.75,32Z"/></g></svg>