<svg id="translation" xmlns="http://www.w3.org/2000/svg" viewBox="0 0 64 64"><defs><style>.cls-1{fill:#f0f;}</style></defs><path class="cls-1" d="M15.21,30c-.35-1.21-.78-3.32-.78-3.32h0S14,28.81,13.6,30l-1.11,3.75H16.3ZM61.6,16h-28V48h28A2.39,2.39,0,0,0,64,45.6V18.4A2.39,2.39,0,0,0,61.6,16ZM59.2,28A1.2,1.2,0,0,1,58,29.2H56.86a17.92,17.92,0,0,1-4.27,7A31,31,0,0,0,55.2,38a1.2,1.2,0,0,1,.41,1.62L54.82,41a1.2,1.2,0,0,1-1.67.43,34.79,34.79,0,0,1-3.54-2.49,35.27,35.27,0,0,1-3.54,2.49A1.2,1.2,0,0,1,44.4,41l-.79-1.39A1.2,1.2,0,0,1,44,38a28.53,28.53,0,0,0,2.61-1.8,23.2,23.2,0,0,1-2.1-2.57,1.2,1.2,0,0,1,.37-1.71l.65-.39.73-.43a1.21,1.21,0,0,1,1.6.34,19.07,19.07,0,0,0,1.74,2.09,15.3,15.3,0,0,0,3-4.32H41.2A1.2,1.2,0,0,1,40,28V26.4a1.2,1.2,0,0,1,1.2-1.2h6.4V23.6a1.2,1.2,0,0,1,1.2-1.2h1.6a1.2,1.2,0,0,1,1.2,1.2v1.6H58a1.2,1.2,0,0,1,1.2,1.2ZM0,18.4V45.6A2.39,2.39,0,0,0,2.4,48h28V16H2.4A2.39,2.39,0,0,0,0,18.4ZM5.89,40,11.64,23.1a1.2,1.2,0,0,1,1.14-.81H16a1.22,1.22,0,0,1,1.14.81L22.92,40a1.2,1.2,0,0,1-1.14,1.59H19.49a1.2,1.2,0,0,1-1.15-.86l-.94-3.19h-6l-.91,3.18a1.21,1.21,0,0,1-1.15.87H7A1.21,1.21,0,0,1,5.89,40Z"/></svg>