<svg id="pose" xmlns="http://www.w3.org/2000/svg" viewBox="0 0 64 64"><defs><style>.cls-1,.cls-2{fill:#f0f;}.cls-2{stroke:#f0f;stroke-miterlimit:10;stroke-width:2px;}</style></defs><path class="cls-1" d="M8,28.94H56c3.86,0,3.87-6,0-6H8c-3.86,0-3.87,6,0,6Z"/><path class="cls-1" d="M29,15.16V39c0,3.86,6,3.86,6,0V15.16c0-3.86-6-3.87-6,0Z"/><path class="cls-1" d="M29.41,37.47,19,55.52,17.5,58.11c-1.94,3.35,3.25,6.37,5.18,3l10.42-18,1.49-2.59c1.93-3.35-3.25-6.37-5.18-3Z"/><path class="cls-1" d="M29.41,40.5l10.42,18,1.49,2.59c1.93,3.34,7.12.32,5.18-3l-10.42-18-1.49-2.59c-1.93-3.34-7.12-.32-5.18,3Z"/><circle class="cls-2" cx="32" cy="12.73" r="8.35"/></svg>