<svg id="unknown" xmlns="http://www.w3.org/2000/svg" viewBox="0 0 64 64"><defs><style>.cls-1{fill:#f0f;}</style></defs><path class="cls-1" d="M36.65,46.16h-10c0-1.43,0-2.3,0-2.62a17.42,17.42,0,0,1,1.6-8q1.61-3.12,6.41-7a49.1,49.1,0,0,0,5.74-5.11,6.88,6.88,0,0,0,1.44-4.22,7.11,7.11,0,0,0-2.55-5.49,10,10,0,0,0-6.9-2.29,10.42,10.42,0,0,0-7,2.39,12.64,12.64,0,0,0-3.87,7.26L11.45,19.83A16.7,16.7,0,0,1,17.41,8q5.52-4.89,14.51-4.89,9.45,0,15,4.95t5.59,11.5a12.69,12.69,0,0,1-2,6.87q-2.05,3.25-8.77,8.83-3.48,2.89-4.32,4.65T36.65,46.16Zm-10,14.77V50h11v11Z"/></svg>